<?xml version="1.0" encoding="UTF-8" standalone="no"?>
<svg
   xmlns:dc="http://purl.org/dc/elements/1.1/"
   xmlns:cc="http://creativecommons.org/ns#"
   xmlns:rdf="http://www.w3.org/1999/02/22-rdf-syntax-ns#"
   xmlns:svg="http://www.w3.org/2000/svg"
   xmlns="http://www.w3.org/2000/svg"
   xmlns:xlink="http://www.w3.org/1999/xlink"
   xmlns:sodipodi="http://sodipodi.sourceforge.net/DTD/sodipodi-0.dtd"
   xmlns:inkscape="http://www.inkscape.org/namespaces/inkscape"
   height="637.90002"
   width="1200"
   viewBox="-27.750945 -13.120125 240.50819 62.76996"
   version="1.1"
   id="svg20"
   sodipodi:docname="insta_logo.svg"
   inkscape:version="0.92.4 (5da689c313, 2019-01-14)">
  <metadata
     id="metadata24">
    <rdf:RDF>
      <cc:Work
         rdf:about="">
        <dc:format>image/svg+xml</dc:format>
        <dc:type
           rdf:resource="http://purl.org/dc/dcmitype/StillImage" />
        <dc:title></dc:title>
      </cc:Work>
    </rdf:RDF>
  </metadata>
  <sodipodi:namedview
     pagecolor="#ffffff"
     bordercolor="#666666"
     borderopacity="1"
     objecttolerance="10"
     gridtolerance="10"
     guidetolerance="10"
     inkscape:pageopacity="0"
     inkscape:pageshadow="2"
     inkscape:window-width="1920"
     inkscape:window-height="1027"
     id="namedview22"
     showgrid="false"
     showborder="false"
     inkscape:zoom="0.295"
     inkscape:cx="49.152542"
     inkscape:cy="400"
     inkscape:window-x="-8"
     inkscape:window-y="-8"
     inkscape:window-maximized="1"
     inkscape:current-layer="svg20" />
  <defs
     id="defs16">
    <linearGradient
       id="a"
       y2="0.4235"
       x2="0.189"
       y1="0.35800001"
       x1="-0.037099998">
      <stop
         offset="0%"
         stop-color="#FFD521"
         id="stop2" />
      <stop
         offset="5%"
         stop-color="#FFD521"
         id="stop4" />
      <stop
         offset="50.1119%"
         stop-color="#F50000"
         id="stop6" />
      <stop
         offset="95%"
         stop-color="#B900B4"
         id="stop8" />
      <stop
         offset="95.0079%"
         stop-color="#B900B4"
         id="stop10" />
      <stop
         offset="100%"
         stop-color="#B900B4"
         id="stop12" />
    </linearGradient>
    <linearGradient
       gradientUnits="userSpaceOnUse"
       gradientTransform="matrix(1.87756,0,0,-0.5326,-0.927,52.51)"
       y2="41.783699"
       x2="19.1168"
       y1="35.328499"
       x1="-3.1616001"
       id="b"
       xlink:href="#a" />
  </defs>
  <path
     d="m 9.5263523,-5.0866011 c -3.788,1.5853 -7.9533,6.05870006 -9.26800002,11.6853 -1.66799998,7.1227001 5.26670002,10.1307001 5.83340002,9.1494001 0.6666,-1.164 -1.2467,-1.5547 -1.6374,-5.248 -0.5026,-4.7760001 1.712,-10.11200012 4.5067,-12.4534001 0.5213,-0.428 0.496,0.176 0.496,1.28939993 0,2.00800017 -0.112,19.97330017 -0.112,23.72400117 0,5.0773 -0.208,6.676 -0.592,8.2546 -0.3773,1.6054 -0.988,2.688 -0.528,3.1094 0.5213,0.4653 2.7359997,-0.6427 4.0199997,-2.4347 1.536,-2.1467 2.0773,-4.7267 2.1773,-7.5267 0.1134,-3.372 0.1067,-8.733301 0.1134,-11.785301 0,-2.8066998 0.044,-11.012 -0.044,-15.9520001 -0.0254,-1.208 -3.3854,-2.4733 -4.9653997,-1.812 M 184.17035,21.5681 c -0.5413,0 -0.7986,0.5666 -1.0066,1.5173 -0.7174,3.316 -1.472,4.064 -2.448,4.064 -1.088,0 -2.064,-1.6413 -2.3214,-4.9267 -0.1946,-2.580001 -0.164,-7.337301 0.088,-12.0693 0.0507,-0.9693011 -0.2146,-1.9307011 -2.82,-2.8813011 -1.1253,-0.4027 -2.756,-1.0067 -3.5666,0.956 -2.2974,5.5320001 -3.1907,9.9360001 -3.4054,11.7173001 -0.005,0.0933 -0.1186,0.1067 -0.1386,-0.1067 -0.1307,-1.4293 -0.4334,-4.028 -0.4707,-9.490599 -0.0133,-1.0560011 -0.2333,-1.9694011 -1.416,-2.7120011 -0.7613,-0.4774 -3.0773,-1.3334 -3.9147,-0.32 -0.7173,0.8306 -1.5533,3.0586011 -2.428,5.7013001 -0.7053,2.152 -1.196,3.612 -1.196,3.612 0,0 0.005,-5.8027 0.0187,-8.0053001 0,-0.8307 -0.5666,-1.1067 -0.736,-1.1574 -0.7746,-0.2266 -2.304,-0.5973 -2.9453,-0.5973 -0.7987,0 -0.988,0.4467 -0.988,1.0947 0,0.0813 -0.132,7.6320001 -0.132,12.9120011 v 0.7426 c -0.4347,2.4294 -1.868,5.7267 -3.4227,5.7267 -1.5546,0 -2.2906,-1.3787 -2.2906,-7.670701 0,-3.6693 0.1133,-5.2666 0.164,-7.9226 0.0307,-1.529399 0.0933,-2.7054001 0.088,-2.9760001 -0.0133,-0.812 -1.4294,-1.228 -2.084,-1.3787 -0.66,-0.1573 -1.2334,-0.208 -1.6854,-0.1893 -0.6293,0.0386 -1.076,0.4533 -1.076,1.0333 v 0.88 c -0.812,-1.2827 -2.128,-2.1773 -3.008,-2.4347 -2.3533,-0.6986 -4.8146,-0.076 -6.6706,2.516 -1.472,2.0654001 -2.36,4.3987001 -2.7054,7.7534001 -0.2586,2.4546 -0.176,4.940001 0.2827,7.041301 -0.5533,2.372 -1.5733,3.348 -2.6867,3.348 -1.624,0 -2.7933,-2.644 -2.6613,-7.218701 0.0947,-3.0066 0.692,-5.1146 1.352,-8.1733 0.284,-1.3027 0.0507,-1.9812998 -0.5213,-2.6427001 -0.5227,-0.592 -1.6427,-0.9 -3.2467,-0.5293 -1.14,0.2707 -2.7813,0.56 -4.2733,0.7813 0,0 0.088,-0.36 0.164,-0.9946 0.384,-3.3294 -3.2347,-3.0587 -4.3867,-1.9947 -0.692,0.6347 -1.164,1.384 -1.34,2.7307 -0.2827,2.1400001 1.46,3.1466001 1.46,3.1466001 -0.572,2.6174 -1.9693,6.04 -3.4227,8.513401 -0.7746,1.328 -1.3666,2.304 -2.1333,3.348 -0.007,-0.384 -0.007,-0.7747 -0.007,-1.1574 -0.0133,-5.506601 0.056,-9.841301 0.088,-11.402601 0.032,-1.529399 0.0947,-2.6747001 0.0947,-2.9454001 -0.0133,-0.592 -0.3587,-0.824 -1.0893,-1.1013 -0.6414,-0.2507 -1.4027,-0.4333 -2.1894,-0.4973 -0.988,-0.0747 -1.592,0.4533 -1.5733,1.076 v 0.8373 c -0.8173,-1.2827 -2.1333,-2.1773 -3.0013,-2.4347 -2.36,-0.6986 -4.819998,-0.076 -6.675998,2.516 -1.4667,2.0654001 -2.436,4.9534001 -2.7134,7.7214001 -0.2506,2.5933 -0.2066,4.782601 0.1454,6.633301 -0.3774,1.8493 -1.4534,3.788 -2.6734,3.788 -1.5546,0 -2.4426,-1.3787 -2.4426,-7.670701 0,-3.6693 0.1133,-5.2666 0.1706,-7.9226 0.0307,-1.529399 0.088,-2.7054001 0.0814,-2.9760001 -0.0067,-0.812 -1.4214,-1.228 -2.0827,-1.3787 -0.6853,-0.1627 -1.284,-0.2133 -1.7373,-0.1893 -0.604,0.0506 -1.0254,0.5853 -1.0254,0.9946 v 0.9187 c -0.8173,-1.2827 -2.1333,-2.1773 -3.008,-2.4347 -2.3533,-0.6986 -4.7946,-0.0626 -6.664,2.516 -1.22,1.6814001 -2.208,3.5494001 -2.7173,7.6907001 -0.1387,1.196 -0.208,2.3147 -0.2013,3.36 -0.4854,2.969301 -2.6307,6.393301 -4.38,6.393301 -1.032,0 -2.0134,-1.9893 -2.0134,-6.236001 0,-5.6506 0.352,-13.7053001 0.4147,-14.4853001 0,0 2.2147,-0.0387 2.6493,-0.044 1.1014,-0.0067 2.108,0.0187 3.5747,-0.0573 0.7427,-0.0374 1.4533,-2.6867 0.6853,-3.02 -0.34,-0.1454 -2.7813,-0.2773999 -3.7506,-0.2959999 -0.8174,-0.0187 -3.0774,-0.188 -3.0774,-0.188 0,0 0.2027,-5.3427001 0.2467,-5.9027001 0.0373,-0.4787 -0.5667,-0.7173 -0.9187,-0.8627 -0.8506,-0.364 -1.612,-0.5346 -2.5053,-0.7173 -1.252,-0.2573 -1.812,-0.0053 -1.9187,1.044 -0.164,1.5933 -0.252,6.2627001 -0.252,6.2627001 -0.9186,0 -4.0333,-0.184 -4.9466,-0.184 -0.848,0 -1.768,3.6505999 -0.5907,3.6945999 1.3533,0.0507 3.7,0.1014 5.26,0.144 0,0 -0.0693,8.1880001 -0.0693,10.7107001 v 0.78 c -0.8614,4.473301 -3.876,6.890701 -3.876,6.890701 0.648,-2.964 -0.6734,-5.185401 -3.064,-7.060001 -0.8814,-0.6987 -2.6174,-2.0147 -4.5627,-3.4427 0,0 1.1267,-1.1133 2.1267,-3.341299 0.7053,-1.5800011 0.7373,-3.3974011 -1,-3.7947011 -2.8694,-0.66 -5.2294,1.448 -5.94,3.7000011 -0.5414,1.737299 -0.2574,3.033299 0.8173,4.373299 l 0.2453,0.3027 c -0.6413,1.2453 -1.5346,2.9253 -2.284,4.228 -2.0946,3.618701 -3.6746,6.476001 -4.864,6.476001 -0.956,0 -0.944,-2.9013 -0.944,-5.620001 0,-2.3413 0.176,-5.8707 0.3147,-9.52 0.044,-1.2027001 -0.56,-1.8947001 -1.572,-2.5173001 -0.6173,-0.3774 -1.9267,-1.12 -2.688,-1.12 -1.132,0 -4.4173,0.1506 -7.5187,9.1173001 -0.3906,1.1333 -1.1586,3.1907 -1.1586,3.1907 l 0.0693,-10.7854001 c 0,-0.252 -0.132,-0.4906 -0.44,-0.6613 -0.5227,-0.2827 -1.9253,-0.8613 -3.1587,-0.8613 -0.5986,0 -0.8946,0.2773 -0.8946,0.824 l -0.1,16.8640011 c 0,1.284 0.0306,2.7813 0.1573,3.436 0.1253,0.6546 0.3333,1.1893 0.5853,1.5093 0.252,0.3093 0.5467,0.548 1.0254,0.6547 0.4466,0.0946 2.9066,0.4026 3.0333,-0.5347 0.1573,-1.1267 0.1627,-2.34 1.4533,-6.8893 2.0134,-7.073401 4.632,-10.521401 5.8654,-11.749401 0.22,-0.2133 0.4653,-0.2266 0.452,0.1267 -0.056,1.5533 -0.2387,5.424 -0.364,8.7147 -0.3334,8.816001 1.264,10.445301 3.5613,10.445301 1.7493,0 4.216,-1.7427 6.8653,-6.1467 1.6547,-2.7506 3.2534,-5.437301 4.4107,-7.381301 0.7933,0.7413 1.6987,1.5413 2.5987,2.3973 2.096,1.981401 2.7813,3.869401 2.3226,5.657401 -0.3466,1.3706 -1.6613,2.78 -3.996,1.4093 -0.68,-0.3973 -0.9693,-0.7053 -1.6546,-1.1587 -0.3654,-0.2453 -0.932,-0.3146 -1.2654,-0.0626 -0.8813,0.6613 -1.3786,1.4973 -1.668,2.536 -0.2706,1.0133 0.7427,1.5413 1.7934,2.0066 0.9,0.4094 2.8386,0.768 4.0773,0.812 4.8267,0.164 8.6907,-2.328 11.3773,-8.7466 0.4854,5.544 2.5294,8.684 6.0854,8.684 2.384,0 4.7693,-3.0774 5.8146,-6.104 0.2947,1.2333 0.7414,2.3026 1.3147,3.216 2.744,4.3413 8.0667,3.4106 10.7347,-0.2774 0.8306,-1.1453 0.9573,-1.5546 0.9573,-1.5546 0.3893,3.4813 3.196,4.7066 4.8013,4.7066 1.8054,0 3.656,-0.8546 4.9574,-3.788 0.1573,0.3214 0.3213,0.624 0.5106,0.9134 2.7374,4.3413 8.059998,3.4106 10.734698,-0.2774 0.12,-0.1826 0.2333,-0.3333 0.3267,-0.4786 l 0.0827,2.2906 c 0,0 -1.5294,1.3974 -2.4667,2.2587 -4.121298,3.7827 -7.255998,6.652 -7.487998,9.986699 -0.2893,4.26 3.1587,5.84 5.775998,6.0466 2.7693,0.2214 5.148,-1.308 6.6067,-3.46 1.284,-1.888 2.128,-5.946599 2.0653,-9.961299 -0.0253,-1.6107 -0.064,-3.6493 -0.1013,-5.8453 1.4533,-1.6734 3.0893,-3.8014 4.588,-6.292 1.6413,-2.706701 3.3906,-6.350701 4.284,-9.188001 0,0 1.5293,0.0133 3.1533,-0.088 0.5227,-0.032 0.6733,0.076 0.572,0.4533 -0.1133,0.4587 -2.0507,7.9413 -0.2827,12.925301 1.2147,3.4094 3.9387,4.5107 5.5627,4.5107 1.8933,0 3.7067,-1.4347 4.6747,-3.5613 0.12,0.2333 0.24,0.4653 0.3786,0.68 2.7374,4.3413 8.0414,3.404 10.7347,-0.2774 0.6107,-0.836 0.9507,-1.5546 0.9507,-1.5546 0.5786,3.6066 3.3853,4.72 4.9893,4.72 1.68,0 3.2653,-0.6854 4.556,-3.732 0.0507,1.3413 0.132,2.436 0.2707,2.7813 0.0813,0.2147 0.56,0.4787 0.9,0.6107 1.5346,0.5666 3.096,0.296 3.668,0.176 0.4026,-0.0814 0.7173,-0.396 0.756,-1.2267 0.112,-2.1773 0.0427,-5.8333 0.704,-8.557301 1.1133,-4.556 2.1453,-6.324 2.636,-7.1987 0.272,-0.492 0.5853,-0.5733 0.592,-0.0573 0.0187,1.0506 0.076,4.1346 0.5093,8.288001 0.3093,3.0453 0.7307,4.8506 1.0573,5.424 0.9187,1.6293 2.064,1.7053 2.9894,1.7053 0.592,0 1.8253,-0.164 1.7173,-1.2027 -0.056,-0.5026 0.0387,-3.6306 1.1267,-8.122601 0.7173,-2.9387 1.9066,-5.588 2.3346,-6.5574 0.164,-0.3586 0.2334,-0.0813 0.2334,-0.0253 -0.0947,2.02 -0.296,8.633301 0.5213,12.245301 1.1213,4.9027 4.348,5.4494 5.4747,5.4494 2.3973,0 4.368,-1.8254 5.028,-6.632 0.164,-1.1587 -0.076,-2.052 -0.7867,-2.052 M 83.558152,18.598699 c -0.132,2.541401 -0.6293,4.669401 -1.4213,6.210701 -1.448,2.8 -4.2974,3.6813 -5.5507,-0.352 -0.912,-2.9133 -0.604,-6.890701 -0.22,-9.037301 0.5533,-3.184 1.9573,-5.4359993 4.1467,-5.229399 2.24,0.221399 3.3346,3.109399 3.0453,8.407999 m 21.954898,0.0374 c -0.1253,2.397301 -0.748,4.813301 -1.428,6.173301 -1.4027,2.8187 -4.335998,3.7 -5.550698,-0.352 -0.8293,-2.776 -0.6346,-6.356001 -0.22,-8.609301 0.536,-2.932 1.825398,-5.657399 4.147998,-5.657399 2.2587,0 3.372,2.479999 3.0507,8.445399 m 0.5733,16.385301 c -0.032,4.3867 -0.7173,8.225299 -2.1906,9.345299 -2.1014,1.5854 -4.926698,0.3894 -4.341398,-2.8066 0.515998,-2.831999 2.963998,-5.719999 6.538698,-9.250699 0,0 0.012,0.8053 -0.007,2.712 m 37.907,-16.360001 c -0.1267,2.637301 -0.712,4.694701 -1.4347,6.148001 -1.404,2.8187 -4.3106,3.6933 -5.5506,-0.352 -0.6734,-2.2093 -0.7054,-5.897301 -0.22,-8.973301 0.4906,-3.1347 1.8693,-5.4999993 4.1466,-5.293399 2.252,0.214699 3.304,3.109399 3.0587,8.470699"
     id="path18"
     inkscape:connector-curvature="0"
     style="fill:url(#b)" />
</svg>
