<?xml version="1.0" encoding="UTF-8" standalone="no"?>
<!-- Created with Inkscape (http://www.inkscape.org/) -->

<svg
   xmlns:dc="http://purl.org/dc/elements/1.1/"
   xmlns:cc="http://creativecommons.org/ns#"
   xmlns:rdf="http://www.w3.org/1999/02/22-rdf-syntax-ns#"
   xmlns:svg="http://www.w3.org/2000/svg"
   xmlns="http://www.w3.org/2000/svg"
   xmlns:sodipodi="http://sodipodi.sourceforge.net/DTD/sodipodi-0.dtd"
   xmlns:inkscape="http://www.inkscape.org/namespaces/inkscape"
   width="260mm"
   height="60mm"
   viewBox="0 0 260 60"
   version="1.1"
   id="svg8"
   inkscape:version="0.92.4 (5da689c313, 2019-01-14)"
   sodipodi:docname="logo.svg">
  <defs
     id="defs2" />
  <sodipodi:namedview
     id="base"
     pagecolor="#ffffff"
     bordercolor="#666666"
     borderopacity="1.0"
     inkscape:pageopacity="0.0"
     inkscape:pageshadow="2"
     inkscape:zoom="1"
     inkscape:cx="519.41884"
     inkscape:cy="-33.712752"
     inkscape:document-units="mm"
     inkscape:current-layer="layer2"
     showgrid="false"
     height="100mm"
     inkscape:showpageshadow="false"
     inkscape:window-width="1920"
     inkscape:window-height="1027"
     inkscape:window-x="-8"
     inkscape:window-y="-8"
     inkscape:window-maximized="1"
     showborder="false"
     inkscape:snap-page="true">
    <inkscape:grid
       type="xygrid"
       id="grid828" />
  </sodipodi:namedview>
  <metadata
     id="metadata5">
    <rdf:RDF>
      <cc:Work
         rdf:about="">
        <dc:format>image/svg+xml</dc:format>
        <dc:type
           rdf:resource="http://purl.org/dc/dcmitype/StillImage" />
        <dc:title></dc:title>
      </cc:Work>
    </rdf:RDF>
  </metadata>
  <g
     inkscape:label="Layer 1"
     inkscape:groupmode="layer"
     id="layer1"
     transform="translate(0,-237)" />
  <g
     inkscape:groupmode="layer"
     id="layer2"
     inkscape:label="napis"
     transform="translate(0,35)"
     style="display:inline">
    <g
       aria-label="roksaq
"
       transform="matrix(0.26458333,0,0,0.26458333,43.595973,-32.423401)"
       style="font-style:normal;font-weight:normal;font-size:26.66666603px;line-height:1.25;font-family:sans-serif;letter-spacing:100px;word-spacing:100px;fill:#ffeeaa;fill-opacity:1;stroke:#ffeeaa"
       id="flowRoot11">
      <path
         d="m 22.503906,63.84375 q 3.125,-5 6.5625,-7.5 3.75,-2.8125 7.5,-2.8125 3.125,0 4.6875,1.5625 1.875,1.25 1.875,3.125 0,1.5625 -0.9375,2.5 -0.625,0.9375 -2.1875,0.9375 -1.5625,0 -2.5,-0.9375 -0.625,-0.9375 -0.3125,-2.5 0,-0.9375 -0.3125,-1.5625 -0.3125,-0.625 -1.875,-0.625 -2.5,0 -6.25,3.125 -3.4375,3.125 -6.25,8.75 v 16.875 q 0,1.25 0.625,1.875 0.9375,0.625 2.1875,0.625 h 6.875 v 1.875 H 9.0664062 v -1.875 h 6.2499998 q 1.5625,0 2.1875,-0.625 0.625,-0.625 0.625,-1.875 v -25.9375 q 0,-1.25 -0.625,-1.875 -0.625,-0.9375 -2.1875,-0.9375 H 9.3789062 v -1.875 h 2.4999998 q 2.1875,0 5,-0.3125 3.125,-0.625 4.6875,-1.25 h 0.9375 z"
         style="font-style:normal;font-variant:normal;font-weight:normal;font-stretch:normal;font-size:80px;font-family:NSimSun;-inkscape-font-specification:'NSimSun, Normal';font-variant-ligatures:normal;font-variant-caps:normal;font-variant-numeric:normal;font-feature-settings:normal;text-align:start;letter-spacing:80px;word-spacing:1px;writing-mode:lr-tb;text-anchor:start;fill:#ffeeaa;fill-opacity:1;stroke:#ffeeaa"
         id="path853" />
      <path
         d="m 162.81641,71.65625 q 0,7.8125 -4.6875,13.125 -4.6875,5 -11.5625,5 -7.1875,0 -11.875,-5.3125 -4.375,-5.3125 -4.375,-12.8125 0,-6.875 4.375,-12.5 4.6875,-5.625 11.875,-5.625 7.5,0 11.875,5.625 4.375,5.625 4.375,12.5 z m -27.5,0.3125 q 0,8.125 3.125,12.1875 3.4375,3.75 8.125,3.75 5.3125,0 8.125,-4.0625 3.125,-4.375 3.125,-11.875 0,-8.125 -3.4375,-12.1875 -3.125,-4.375 -7.8125,-4.375 -4.375,0 -7.8125,4.375 -3.4375,4.0625 -3.4375,12.1875 z"
         style="font-style:normal;font-variant:normal;font-weight:normal;font-stretch:normal;font-size:80px;font-family:NSimSun;-inkscape-font-specification:'NSimSun, Normal';font-variant-ligatures:normal;font-variant-caps:normal;font-variant-numeric:normal;font-feature-settings:normal;text-align:start;letter-spacing:80px;word-spacing:1px;writing-mode:lr-tb;text-anchor:start;fill:#ffeeaa;fill-opacity:1;stroke:#ffeeaa"
         id="path855" />
      <path
         d="m 267.50391,66.65625 11.875,18.4375 q 0.9375,1.25 1.5625,1.875 0.9375,0.3125 1.875,0.3125 h 1.25 v 1.875 h -12.8125 v -1.875 h 0.9375 q 1.5625,0 2.1875,-0.3125 0.625,-0.625 -0.3125,-1.875 l -9.6875,-15.3125 -6.25,6.5625 v 8.4375 q 0,1.25 0.625,1.875 0.9375,0.625 2.1875,0.625 h 1.5625 v 1.875 h -13.125 v -1.875 h 1.5625 q 1.5625,0 2.1875,-0.625 0.625,-0.625 0.625,-1.875 v -44.6875 q 0,-1.25 -0.625,-1.875 -0.625,-0.625 -2.1875,-0.625 h -1.875 v -1.875 h 2.8125 q 1.875,0 3.125,-0.625 1.5625,-0.625 2.5,-1.875 h 0.625 v 39.6875 l 13.125,-14.0625 q 0.625,-1.25 0.3125,-1.875 0,-0.9375 -1.25,-0.9375 h -1.875 v -1.875 h 13.125 v 1.875 h -1.5625 q -0.9375,0 -2.5,0.625 -1.25,0.3125 -2.5,1.5625 z m 9.6875,-10.625 z m -3.4375,0 z m 1.5625,31.25 z m 5.625,0 z"
         style="font-style:normal;font-variant:normal;font-weight:normal;font-stretch:normal;font-size:80px;font-family:NSimSun;-inkscape-font-specification:'NSimSun, Normal';font-variant-ligatures:normal;font-variant-caps:normal;font-variant-numeric:normal;font-feature-settings:normal;text-align:start;letter-spacing:80px;word-spacing:1px;writing-mode:lr-tb;text-anchor:start;fill:#ffeeaa;fill-opacity:1;stroke:#ffeeaa"
         id="path857" />
      <path
         d="m 374.37891,63.21875 q 0,-4.6875 3.4375,-7.1875 3.75,-2.5 8.75,-2.5 2.8125,0 5.3125,0.625 2.5,0.9375 3.4375,0.9375 0.9375,0 1.5625,-0.3125 0.625,-0.3125 1.5625,-1.25 l 1.25,10.3125 -1.875,0.3125 q -1.25,-4.0625 -4.375,-6.25 -2.8125,-2.5 -6.5625,-2.5 -4.0625,0 -6.5625,1.5625 -2.1875,1.5625 -2.1875,4.375 0,2.5 0.9375,4.0625 1.25,1.25 4.0625,1.875 2.1875,0.9375 5.625,1.875 3.125,1.25 5.9375,2.5 2.5,1.25 4.0625,3.4375 1.875,1.875 1.875,4.375 0,4.6875 -3.4375,7.5 -3.125,2.5 -9.375,2.5 -4.0625,0 -5.9375,-0.9375 -2.1875,-0.625 -3.4375,-0.625 -0.9375,0 -2.1875,0.625 -0.9375,0.3125 -2.1875,0.9375 l -0.9375,-11.5625 1.875,-0.3125 q 0.9375,5 4.0625,7.5 3.125,2.5 8.75,2.5 4.375,0 6.5625,-1.5625 2.5,-1.5625 2.5,-4.6875 0,-2.1875 -1.25,-3.4375 -1.25,-1.5625 -2.5,-2.1875 -3.125,-1.25 -6.875,-2.8125 -3.75,-1.25 -6.5625,-2.5 -2.8125,-1.25 -4.0625,-3.125 -1.25,-1.875 -1.25,-4.0625 z"
         style="font-style:normal;font-variant:normal;font-weight:normal;font-stretch:normal;font-size:80px;font-family:NSimSun;-inkscape-font-specification:'NSimSun, Normal';font-variant-ligatures:normal;font-variant-caps:normal;font-variant-numeric:normal;font-feature-settings:normal;text-align:start;letter-spacing:80px;word-spacing:1px;writing-mode:lr-tb;text-anchor:start;fill:#ffeeaa;fill-opacity:1;stroke:#ffeeaa"
         id="path859" />
      <path
         d="m 501.87891,89.46875 q -5.625,0 -8.75,-2.5 -3.125,-2.8125 -3.125,-6.25 0,-5.625 4.6875,-9.0625 5,-3.75 19.375,-5.3125 v -3.75 q 0,-3.125 -1.5625,-5 -1.25,-2.1875 -6.25,-2.1875 -5.3125,0 -7.5,1.875 -2.1875,1.5625 -1.5625,3.4375 0.3125,0.625 0.3125,1.25 0,0.625 -0.625,1.5625 -0.3125,0.9375 -2.1875,0.9375 -1.25,0 -2.1875,-0.625 -0.625,-0.9375 -0.625,-2.5 0,-2.8125 4.0625,-5.3125 4.0625,-2.5 10,-2.5 6.25,0 9.375,2.5 3.125,2.1875 3.125,6.5625 v 20.625 q 0,2.5 0.3125,3.125 0.625,0.3125 1.875,0.3125 1.5625,0 2.1875,-1.25 0.625,-1.5625 0.625,-4.0625 h 1.5625 q 0,4.375 -1.5625,6.25 -1.5625,1.5625 -4.0625,1.5625 -2.1875,0 -3.4375,-0.9375 -1.25,-0.9375 -1.875,-3.125 -3.125,2.1875 -5.9375,3.4375 -2.5,0.9375 -6.25,0.9375 z m -6.5625,-9.6875 q 0,2.8125 1.5625,5.3125 1.875,2.1875 5.625,2.1875 2.8125,0 5.625,-0.9375 2.8125,-1.25 5.9375,-3.4375 v -14.6875 q -10.625,1.25 -14.6875,4.375 -4.0625,2.8125 -4.0625,7.1875 z"
         style="font-style:normal;font-variant:normal;font-weight:normal;font-stretch:normal;font-family:NSimSun;-inkscape-font-specification:NSimSun;fill:#ffeeaa;fill-opacity:1;stroke:#ffeeaa"
         id="path861" />
      <path
         d="m 635.00391,62.28125 q -1.25,-2.8125 -3.4375,-4.375 -2.1875,-1.875 -5.3125,-1.875 -4.375,0 -7.5,3.75 -3.125,3.75 -3.125,12.8125 0,7.8125 2.5,11.25 2.8125,3.125 6.875,3.125 3.4375,0 5.9375,-1.5625 2.8125,-1.5625 4.0625,-5.3125 z m 4.375,33.75 q 0,1.5625 0.625,2.1875 0.9375,0.625 2.1875,0.625 h 1.875 v 1.875 h -14.375 v -1.875 h 2.5 q 1.5625,0 2.1875,-0.625 0.625,-0.625 0.625,-2.1875 v -11.5625 q -1.875,2.5 -4.6875,3.75 -2.5,1.25 -6.25,1.25 -5.3125,0 -9.375,-4.375 -4.0625,-4.6875 -4.0625,-13.4375 0,-8.4375 4.6875,-13.125 4.6875,-4.6875 10,-4.6875 3.4375,0 5.625,1.25 2.5,1.25 4.375,3.125 l 2.8125,-4.0625 h 1.25 z"
         style="font-style:normal;font-variant:normal;font-weight:normal;font-stretch:normal;font-size:80px;font-family:NSimSun;-inkscape-font-specification:'NSimSun, Normal';font-variant-ligatures:normal;font-variant-caps:normal;font-variant-numeric:normal;font-feature-settings:normal;text-align:start;letter-spacing:80px;word-spacing:1px;writing-mode:lr-tb;text-anchor:start;fill:#ffeeaa;fill-opacity:1;stroke:#ffeeaa"
         id="path863" />
    </g>
    <g
       aria-label="FOTOMODELKA"
       transform="matrix(0.26458333,0,0,0.26458333,80.319312,3.0867632)"
       style="font-style:normal;font-weight:normal;font-size:26.66666603px;line-height:1.25;font-family:sans-serif;letter-spacing:100px;word-spacing:100px;fill:#ffdd55;fill-opacity:1;stroke:#ffdd55"
       id="flowRoot11-2">
      <path
         d="m 22.878906,17.28895 q 0.171875,0 0.171875,0.15625 v 5.015625 q 0,0.171875 -0.171875,0.171875 h -1.171875 q -0.171875,0 -0.171875,-0.125 l -0.625,-3.625 q 0,-0.125 -0.171875,-0.125 h -7 q -0.15625,0 -0.15625,0.15625 v 8.390625 q 0,0.125 0.15625,0.125 h 4.21875 q 0.15625,0 0.15625,-0.125 l 0.328125,-2.59375 q 0,-0.125 0.15625,-0.125 h 0.859375 q 0.171875,0 0.171875,0.15625 v 6.8125 q 0,0.15625 -0.171875,0.15625 h -0.859375 q -0.15625,0 -0.15625,-0.125 l -0.328125,-2.625 q 0,-0.125 -0.15625,-0.125 h -4.21875 q -0.15625,0 -0.15625,0.125 V 37.2577 q 0,0.15625 0.15625,0.15625 l 2.71875,0.25 q 0.15625,0 0.15625,0.171875 v 0.828125 q 0,0.15625 -0.15625,0.15625 H 7.9101563 q -0.15625,0 -0.15625,-0.15625 v -0.828125 q 0,-0.171875 0.15625,-0.171875 l 2.7187497,-0.25 q 0.15625,0 0.15625,-0.15625 V 18.78895 q -0.03125,-0.09375 -0.09375,-0.09375 h -0.0625 L 7.9101563,18.429575 q -0.15625,0 -0.15625,-0.15625 V 17.4452 q 0,-0.15625 0.125,-0.15625 z"
         style="font-style:normal;font-variant:normal;font-weight:bold;font-stretch:normal;font-size:32px;font-family:Sylfaen;-inkscape-font-specification:'Sylfaen, Normal';font-variant-ligatures:normal;font-variant-caps:normal;font-variant-numeric:normal;font-feature-settings:normal;text-align:start;letter-spacing:12px;word-spacing:1px;writing-mode:lr-tb;text-anchor:start;fill:#ffdd55;fill-opacity:1;stroke:#ffdd55"
         id="path830" />
      <path
         d="m 47.910156,16.804575 q 4.84375,0 7.828125,3.1875 2.921875,3.109375 2.921875,7.984375 0,4.84375 -2.9375,8.015625 -3.015625,3.28125 -7.8125,3.28125 -4.8125,0 -7.90625,-3.171875 -3.09375,-3.171875 -3.09375,-8 0,-4.875 3.046875,-8.0625 3.109375,-3.234375 7.953125,-3.234375 z m -0.375,1.4375 q -3.59375,0 -5.671875,2.828125 -1.859375,2.546875 -1.859375,6.265625 0,2.671875 0.90625,4.953125 1.015625,2.53125 2.96875,4.046875 1.953125,1.5 4.453125,1.5 3.609375,0 5.5625,-2.90625 1.671875,-2.515625 1.671875,-6.3125 0,-4.25 -2.109375,-7.203125 -2.265625,-3.171875 -5.921875,-3.171875 z"
         style="font-style:normal;font-variant:normal;font-weight:bold;font-stretch:normal;font-size:32px;font-family:Sylfaen;-inkscape-font-specification:'Sylfaen, Normal';font-variant-ligatures:normal;font-variant-caps:normal;font-variant-numeric:normal;font-feature-settings:normal;text-align:start;letter-spacing:12px;word-spacing:1px;writing-mode:lr-tb;text-anchor:start;fill:#ffdd55;fill-opacity:1;stroke:#ffdd55"
         id="path832" />
      <path
         d="m 90.378906,17.28895 q 0.15625,0 0.15625,0.15625 v 5.015625 q 0,0.171875 -0.15625,0.171875 h -1.1875 q -0.15625,0 -0.15625,-0.125 l -0.640625,-3.625 q 0,-0.125 -0.15625,-0.125 h -5.1875 q -0.125,0 -0.125,0.15625 V 37.2577 q 0,0.140625 0.15625,0.15625 l 3.03125,0.25 q 0.171875,0.01563 0.171875,0.171875 v 0.828125 q 0,0.15625 -0.171875,0.15625 h -9.171875 q -0.171875,0 -0.171875,-0.15625 v -0.828125 q 0,-0.15625 0.171875,-0.171875 l 3.03125,-0.25 q 0.15625,-0.01563 0.15625,-0.15625 V 18.91395 q 0,-0.15625 -0.125,-0.15625 h -5.1875 q -0.15625,0 -0.15625,0.125 l -0.640625,3.625 q 0,0.125 -0.15625,0.125 h -1.1875 q -0.15625,0 -0.15625,-0.171875 V 17.4452 q 0,-0.15625 0.15625,-0.15625 z"
         style="font-style:normal;font-variant:normal;font-weight:bold;font-stretch:normal;font-size:32px;font-family:Sylfaen;-inkscape-font-specification:'Sylfaen, Normal';font-variant-ligatures:normal;font-variant-caps:normal;font-variant-numeric:normal;font-feature-settings:normal;text-align:start;letter-spacing:12px;word-spacing:1px;writing-mode:lr-tb;text-anchor:start;fill:#ffdd55;fill-opacity:1;stroke:#ffdd55"
         id="path834" />
      <path
         d="m 115.41016,16.804575 q 4.84375,0 7.82812,3.1875 2.92188,3.109375 2.92188,7.984375 0,4.84375 -2.9375,8.015625 -3.01563,3.28125 -7.8125,3.28125 -4.8125,0 -7.90625,-3.171875 -3.09375,-3.171875 -3.09375,-8 0,-4.875 3.04687,-8.0625 3.10938,-3.234375 7.95313,-3.234375 z m -0.375,1.4375 q -3.59375,0 -5.67188,2.828125 -1.85937,2.546875 -1.85937,6.265625 0,2.671875 0.90625,4.953125 1.01562,2.53125 2.96875,4.046875 1.95312,1.5 4.45312,1.5 3.60938,0 5.5625,-2.90625 1.67188,-2.515625 1.67188,-6.3125 0,-4.25 -2.10938,-7.203125 -2.26562,-3.171875 -5.92187,-3.171875 z"
         style="font-style:normal;font-variant:normal;font-weight:bold;font-stretch:normal;font-size:32px;font-family:Sylfaen;-inkscape-font-specification:'Sylfaen, Normal';font-variant-ligatures:normal;font-variant-caps:normal;font-variant-numeric:normal;font-feature-settings:normal;text-align:start;letter-spacing:12px;word-spacing:1px;writing-mode:lr-tb;text-anchor:start;fill:#ffdd55;fill-opacity:1;stroke:#ffdd55"
         id="path836" />
      <path
         d="m 146.89453,17.28895 q 0.0781,0.01563 0.125,0.09375 l 6.82813,16.828125 6.84375,-16.828125 q 0.0312,-0.09375 0.125,-0.09375 h 6.375 q 0.15625,0 0.15625,0.15625 v 0.828125 q 0,0.15625 -0.15625,0.15625 l -2.71875,0.265625 q -0.17188,0 -0.17188,0.15625 V 37.2577 q 0,0.140625 0.17188,0.15625 l 2.875,0.25 q 0.15625,0.01563 0.15625,0.171875 v 0.828125 q 0,0.15625 -0.15625,0.15625 h -9 q -0.15625,0 -0.15625,-0.15625 v -0.828125 q 0,-0.15625 0.15625,-0.171875 l 3.01562,-0.25 q 0.15625,-0.01563 0.15625,-0.15625 V 19.492075 h -0.125 l -7.90625,19.546875 q -0.0312,0.0625 -0.15625,0.0625 h -0.32812 q -0.125,0 -0.15625,-0.0625 l -7.90625,-19.328125 h -0.125 V 37.2577 q 0,0.15625 0.15625,0.15625 l 2.65625,0.25 q 0.17187,0 0.17187,0.171875 v 0.828125 q 0,0.15625 -0.17187,0.15625 h -7.32813 q -0.15625,0 -0.15625,-0.15625 v -0.828125 q 0,-0.15625 0.15625,-0.171875 l 2.85938,-0.25 q 0.15625,-0.01563 0.15625,-0.15625 V 18.85145 q 0,-0.15625 -0.15625,-0.15625 l -2.71875,-0.265625 q -0.17188,0 -0.17188,-0.15625 V 17.4452 q 0,-0.15625 0.17188,-0.15625 z"
         style="font-style:normal;font-variant:normal;font-weight:bold;font-stretch:normal;font-size:32px;font-family:Sylfaen;-inkscape-font-specification:'Sylfaen, Normal';font-variant-ligatures:normal;font-variant-caps:normal;font-variant-numeric:normal;font-feature-settings:normal;text-align:start;letter-spacing:12px;word-spacing:1px;writing-mode:lr-tb;text-anchor:start;fill:#ffdd55;fill-opacity:1;stroke:#ffdd55"
         id="path838" />
      <path
         d="m 192.47266,16.804575 q 4.84375,0 7.82812,3.1875 2.92188,3.109375 2.92188,7.984375 0,4.84375 -2.9375,8.015625 -3.01563,3.28125 -7.8125,3.28125 -4.8125,0 -7.90625,-3.171875 -3.09375,-3.171875 -3.09375,-8 0,-4.875 3.04687,-8.0625 3.10938,-3.234375 7.95313,-3.234375 z m -0.375,1.4375 q -3.59375,0 -5.67188,2.828125 -1.85937,2.546875 -1.85937,6.265625 0,2.671875 0.90625,4.953125 1.01562,2.53125 2.96875,4.046875 1.95312,1.5 4.45312,1.5 3.60938,0 5.5625,-2.90625 1.67188,-2.515625 1.67188,-6.3125 0,-4.25 -2.10938,-7.203125 -2.26562,-3.171875 -5.92187,-3.171875 z"
         style="font-style:normal;font-variant:normal;font-weight:bold;font-stretch:normal;font-size:32px;font-family:Sylfaen;-inkscape-font-specification:'Sylfaen, Normal';font-variant-ligatures:normal;font-variant-caps:normal;font-variant-numeric:normal;font-feature-settings:normal;text-align:start;letter-spacing:12px;word-spacing:1px;writing-mode:lr-tb;text-anchor:start;fill:#ffdd55;fill-opacity:1;stroke:#ffdd55"
         id="path840" />
      <path
         d="m 223.45703,37.1952 q 0,0.15625 0.15625,0.15625 h 2.26563 q 4.82812,0 7.01562,-1.703125 2.45313,-1.9375 2.45313,-6.625 0,-10.265625 -8.95313,-10.265625 h -2.78125 q -0.15625,0 -0.15625,0.15625 z m -2.79687,-18.21875 q 0,-0.15625 -0.15625,-0.15625 l -2.71875,-0.25 q -0.15625,0 -0.15625,-0.171875 V 17.4452 q 0,-0.15625 0.15625,-0.15625 h 8.60937 q 5.53125,0 8.625,2.515625 3.375,2.734375 3.375,8.140625 0,10.875 -12.48437,10.875 h -8.125 q -0.15625,0 -0.15625,-0.15625 V 37.6952 q 0,-0.15625 0.15625,-0.15625 l 2.71875,-0.25 q 0.15625,0 0.15625,-0.171875 z"
         style="font-style:normal;font-variant:normal;font-weight:bold;font-stretch:normal;font-size:32px;font-family:Sylfaen;-inkscape-font-specification:'Sylfaen, Normal';font-variant-ligatures:normal;font-variant-caps:normal;font-variant-numeric:normal;font-feature-settings:normal;text-align:start;letter-spacing:12px;word-spacing:1px;writing-mode:lr-tb;text-anchor:start;fill:#ffdd55;fill-opacity:1;stroke:#ffdd55"
         id="path842" />
      <path
         d="m 268.26953,17.28895 q 0.15625,0 0.15625,0.15625 v 5.015625 q 0,0.171875 -0.15625,0.171875 h -1.1875 q -0.15625,0 -0.15625,-0.125 l -0.64062,-3.625 q 0,-0.125 -0.15625,-0.125 h -7.32813 q -0.15625,0 -0.15625,0.15625 v 7.90625 q 0,0.15625 0.15625,0.15625 h 4.40625 q 0.17188,0 0.17188,-0.125 l 0.3125,-2.59375 q 0,-0.125 0.15625,-0.125 h 0.875 q 0.15625,0 0.15625,0.15625 v 6.953125 q 0,0.15625 -0.15625,0.15625 h -0.875 q -0.15625,0 -0.15625,-0.125 l -0.3125,-2.75 q 0,-0.140625 -0.17188,-0.140625 h -4.40625 q -0.15625,0 -0.15625,0.171875 V 37.1952 q 0,0.15625 0.15625,0.15625 h 7.76563 q 0.17187,0 0.17187,-0.125 l 0.64063,-3.5625 q 0,-0.125 0.15625,-0.125 h 1.1875 q 0.15625,0 0.15625,0.15625 v 4.96875 q 0,0.15625 -0.15625,0.15625 h -15.75 q -0.15625,0 -0.15625,-0.15625 v -0.828125 q 0,-0.171875 0.15625,-0.171875 l 2.71875,-0.25 q 0.15625,0 0.15625,-0.15625 V 18.78895 q -0.0625,-0.09375 -0.15625,-0.09375 l -2.71875,-0.265625 q -0.15625,0 -0.15625,-0.15625 V 17.4452 q 0,-0.15625 0.15625,-0.15625 z"
         style="font-style:normal;font-variant:normal;font-weight:bold;font-stretch:normal;font-size:32px;font-family:Sylfaen;-inkscape-font-specification:'Sylfaen, Normal';font-variant-ligatures:normal;font-variant-caps:normal;font-variant-numeric:normal;font-feature-settings:normal;text-align:start;letter-spacing:12px;word-spacing:1px;writing-mode:lr-tb;text-anchor:start;fill:#ffdd55;fill-opacity:1;stroke:#ffdd55"
         id="path844" />
      <path
         d="m 283.53516,17.4452 q 0,-0.15625 0.15625,-0.15625 h 8.67187 q 0.15625,0 0.15625,0.15625 v 0.828125 q 0,0.15625 -0.15625,0.15625 l -2.875,0.265625 q -0.15625,0 -0.15625,0.15625 V 37.1952 q 0,0.15625 0.15625,0.15625 h 7.42188 q 0.15625,0 0.15625,-0.125 l 0.64062,-3.5625 q 0,-0.125 0.15625,-0.125 h 1.1875 q 0.15625,0 0.15625,0.15625 v 4.96875 q 0,0.15625 -0.15625,0.15625 h -15.35937 q -0.15625,0 -0.15625,-0.15625 v -0.828125 q 0,-0.171875 0.15625,-0.171875 l 2.6875,-0.25 q 0.15625,0 0.15625,-0.15625 V 18.85145 q 0,-0.15625 -0.15625,-0.15625 l -2.6875,-0.265625 q -0.15625,0 -0.15625,-0.15625 z"
         style="font-style:normal;font-variant:normal;font-weight:bold;font-stretch:normal;font-size:32px;font-family:Sylfaen;-inkscape-font-specification:'Sylfaen, Normal';font-variant-ligatures:normal;font-variant-caps:normal;font-variant-numeric:normal;font-feature-settings:normal;text-align:start;letter-spacing:12px;word-spacing:1px;writing-mode:lr-tb;text-anchor:start;fill:#ffdd55;fill-opacity:1;stroke:#ffdd55"
         id="path846" />
      <path
         d="m 313.34766,17.4452 q 0,-0.15625 0.15625,-0.15625 h 7.78125 q 0.15625,0 0.15625,0.15625 v 0.859375 q 0,0.125 -0.125,0.125 l -2.17188,0.265625 q -0.125,0 -0.125,0.15625 v 8.671875 l 7.73438,-8.703125 q 0.0625,-0.0625 0.0312,-0.15625 -0.0312,-0.09375 -0.125,-0.09375 l -1.3125,-0.140625 q -0.15625,0 -0.15625,-0.15625 V 17.4452 q 0,-0.15625 0.15625,-0.15625 h 6.46875 q 0.15625,0 0.15625,0.15625 v 0.828125 q 0,0.15625 -0.15625,0.15625 l -2.98438,0.296875 q -0.0625,0 -0.0938,0.03125 l -6.59375,7.421875 q -0.0469,0.03125 -0.0625,0.09375 l 0.0312,0.09375 8.0625,10.953125 q 0.0625,0.0625 0.0938,0.0625 l 2.92188,0.28125 q 0.15625,0 0.15625,0.171875 v 0.828125 q 0,0.15625 -0.15625,0.15625 h -8 q -0.15625,0 -0.15625,-0.15625 v -0.828125 q 0,-0.171875 0.15625,-0.171875 l 1.40625,-0.125 q 0.0938,0 0.125,-0.07813 0.0312,-0.07813 0,-0.171875 l -6.5,-8.734375 q -0.0625,-0.07813 -0.125,-0.07813 -0.0625,0.01563 -0.0938,0.07813 l -0.95313,1.078125 q -0.0312,0.04688 -0.0312,0.09375 v 7.5625 q 0,0.15625 0.125,0.15625 l 2.07813,0.21875 q 0.125,0 0.125,0.125 v 0.875 q 0,0.15625 -0.15625,0.15625 h -7.6875 q -0.15625,0 -0.15625,-0.15625 v -0.828125 q 0,-0.171875 0.15625,-0.171875 l 2.5625,-0.25 q 0.15625,0 0.15625,-0.15625 V 18.85145 q 0,-0.15625 -0.15625,-0.15625 l -2.5625,-0.265625 q -0.15625,0 -0.15625,-0.15625 z"
         style="font-style:normal;font-variant:normal;font-weight:bold;font-stretch:normal;font-size:32px;font-family:Sylfaen;-inkscape-font-specification:'Sylfaen, Normal';font-variant-ligatures:normal;font-variant-caps:normal;font-variant-numeric:normal;font-feature-settings:normal;text-align:start;letter-spacing:12px;word-spacing:1px;writing-mode:lr-tb;text-anchor:start;fill:#ffdd55;fill-opacity:1;stroke:#ffdd55"
         id="path848" />
      <path
         d="m 356.28516,21.60145 q -0.0625,-0.09375 -0.125,-0.09375 -0.0938,0 -0.125,0.09375 l -3.01563,7.65625 q -0.0938,0.21875 0.14063,0.21875 h 5.78125 q 0.25,0 0.17187,-0.21875 z m 3.10937,17.21875 q -0.15625,0 -0.15625,-0.15625 v -0.828125 q 0,-0.171875 0.15625,-0.171875 l 2.5,-0.25 q 0.0938,0 0.125,-0.0625 0.0312,-0.0625 0,-0.15625 l -2.375,-6.28125 q -0.0625,-0.09375 -0.125,-0.09375 h -6.96875 q -0.0781,0.01563 -0.125,0.09375 l -2.53125,6.34375 q -0.0781,0.203125 0.15625,0.21875 l 2.40625,0.1875 q 0.15625,0.01563 0.15625,0.171875 v 0.828125 q 0,0.15625 -0.15625,0.15625 h -6.92187 q -0.15625,0 -0.15625,-0.15625 v -0.828125 q 0,-0.171875 0.15625,-0.171875 l 2.625,-0.25 q 0.0781,-0.01563 0.125,-0.09375 l 8.14062,-20.484375 q 0.0625,-0.09375 0.125,-0.09375 h 0.79688 q 0.0781,0.01563 0.125,0.09375 l 7.48437,20.453125 q 0.0312,0.09375 0.14063,0.09375 l 2.54687,0.28125 q 0.14063,0 0.14063,0.171875 v 0.828125 q 0,0.15625 -0.17188,0.15625 z"
         style="font-style:normal;font-variant:normal;font-weight:bold;font-stretch:normal;font-size:32px;font-family:Sylfaen;-inkscape-font-specification:'Sylfaen, Normal';font-variant-ligatures:normal;font-variant-caps:normal;font-variant-numeric:normal;font-feature-settings:normal;text-align:start;letter-spacing:12px;word-spacing:1px;writing-mode:lr-tb;text-anchor:start;fill:#ffdd55;fill-opacity:1;stroke:#ffdd55"
         id="path850" />
    </g>
    <path
       style="fill:none;stroke:#f9f9f9;stroke-width:0.15;stroke-linecap:butt;stroke-linejoin:miter;stroke-miterlimit:4;stroke-dasharray:none;stroke-opacity:1"
       d="M 77.196956,3.7791982 H 235.71973"
       id="path860"
       inkscape:connector-curvature="0" />
    <path
       style="fill:#803300;stroke:#afe9dd;stroke-width:0.2;stroke-linecap:round;stroke-linejoin:miter;stroke-miterlimit:4;stroke-dasharray:none;stroke-opacity:1"
       d="M 33.605667,1.1330821 H 109.09762"
       id="path860-8"
       inkscape:connector-curvature="0" />
    <path
       style="fill:#000000;stroke:#f9f9f9;stroke-width:0.2;stroke-linecap:round;stroke-linejoin:miter;stroke-miterlimit:4;stroke-dasharray:none;stroke-opacity:1"
       d="M 13.544391,1.1633313 4.7665728,9.9411496"
       id="path21"
       inkscape:connector-curvature="0" />
    <ellipse
       style="opacity:1;fill:#5f5f5f;fill-opacity:1;fill-rule:nonzero;stroke:#f9f9f9;stroke-width:1.99999988;stroke-linecap:round;stroke-linejoin:round;stroke-miterlimit:4;stroke-dasharray:none;stroke-dashoffset:0;stroke-opacity:1"
       id="path831"
       cx="4.3539844"
       cy="10.349853"
       rx="0.26846522"
       ry="0.26840365" />
    <path
       style="display:inline;fill:#000000;stroke:#f9f9f9;stroke-width:0.2;stroke-linecap:round;stroke-linejoin:miter;stroke-miterlimit:4;stroke-dasharray:none;stroke-opacity:1"
       d="M 13.565068,1.1376095 H 33.460629"
       id="path860-8-5"
       inkscape:connector-curvature="0" />
    <ellipse
       style="opacity:1;fill:#f9f9f9;fill-opacity:1;fill-rule:nonzero;stroke:#f9f9f9;stroke-width:0.20000002;stroke-linecap:butt;stroke-linejoin:round;stroke-miterlimit:4;stroke-dasharray:none;stroke-dashoffset:0;stroke-opacity:1"
       id="path829"
       cx="4.3748507"
       cy="10.340287"
       rx="0.78083086"
       ry="0.66514564" />
  </g>
</svg>
