<?xml version="1.0" encoding="UTF-8" standalone="no"?>
<!-- Created with Inkscape (http://www.inkscape.org/) -->

<svg
   xmlns:dc="http://purl.org/dc/elements/1.1/"
   xmlns:cc="http://creativecommons.org/ns#"
   xmlns:rdf="http://www.w3.org/1999/02/22-rdf-syntax-ns#"
   xmlns:svg="http://www.w3.org/2000/svg"
   xmlns="http://www.w3.org/2000/svg"
   xmlns:sodipodi="http://sodipodi.sourceforge.net/DTD/sodipodi-0.dtd"
   xmlns:inkscape="http://www.inkscape.org/namespaces/inkscape"
   width="48"
   height="48"
   viewBox="0 0 12.7 12.7"
   version="1.1"
   id="svg8"
   inkscape:version="0.92.4 (5da689c313, 2019-01-14)"
   sodipodi:docname="favicon.svg">
  <defs
     id="defs2" />
  <sodipodi:namedview
     id="base"
     pagecolor="#ffffff"
     bordercolor="#666666"
     borderopacity="1.0"
     inkscape:pageopacity="0.0"
     inkscape:pageshadow="2"
     inkscape:zoom="11.2"
     inkscape:cx="27.996743"
     inkscape:cy="26.531272"
     inkscape:document-units="mm"
     inkscape:current-layer="layer2"
     showgrid="false"
     units="px"
     inkscape:window-width="1920"
     inkscape:window-height="1027"
     inkscape:window-x="-8"
     inkscape:window-y="-8"
     inkscape:window-maximized="1"
     showborder="false"
     inkscape:snap-page="true" />
  <metadata
     id="metadata5">
    <rdf:RDF>
      <cc:Work
         rdf:about="">
        <dc:format>image/svg+xml</dc:format>
        <dc:type
           rdf:resource="http://purl.org/dc/dcmitype/StillImage" />
        <dc:title></dc:title>
      </cc:Work>
    </rdf:RDF>
  </metadata>
  <g
     inkscape:label="Layer 1"
     inkscape:groupmode="layer"
     id="layer1"
     transform="translate(0,-284.30001)" />
  <g
     inkscape:groupmode="layer"
     id="layer3"
     inkscape:label="tło">
    <rect
       style="opacity:1;fill:#afe9dd;fill-opacity:1;fill-rule:nonzero;stroke:#afe9dd;stroke-width:0.2;stroke-linecap:butt;stroke-linejoin:round;stroke-miterlimit:4;stroke-dasharray:none;stroke-dashoffset:0;stroke-opacity:1"
       id="rect830"
       width="12.7"
       height="12.7"
       x="0"
       y="0"
       ry="6.3499999" />
  </g>
  <g
     inkscape:groupmode="layer"
     id="layer2"
     inkscape:label="tekst">
    <g
       aria-label="R"
       transform="matrix(0.26458333,0,0,0.26458333,3.0606297,-0.34189272)"
       style="font-style:normal;font-weight:normal;font-size:36px;line-height:1.25;font-family:sans-serif;letter-spacing:1px;word-spacing:100px;fill:#000000;fill-opacity:1;stroke:none"
       id="flowRoot816">
      <path
         d="m 26.432266,35.112193 q 0,0.48 -0.4,1.16 -0.4,0.68 -0.84,0.68 -0.4,0 -0.76,-0.12 -0.36,-0.16 -1.08,-0.56 -2.52,-1.48 -6.6,-2.88 -1.8,-0.6 -4.28,-1.24 -2.44,-0.68 -3.8400004,-1 l 0.28,5.16 q 0.04,1.08 0.28,1.8 0.24,0.76 0.24,0.96 0,0.44 -0.44,0.72 -0.44,0.32 -0.92,0.32 -0.6,0 -0.76,-0.84 0,-0.08 -0.12,-0.72 -0.08,-0.64 -0.08,-1.8 0,-0.76 -0.16,-3.24 -0.04,-0.84 -0.08,-1.6 -0.04,-0.8 -0.04,-1.4 -0.12,-0.12 -0.32,-0.28 -0.16,-0.16 -0.28,-0.44 -0.12,-0.36 -0.2,-0.76 -0.08,-0.4 -0.08,-0.6 0,-0.28 0.16,-0.44 0.16,-0.16 0.48,-0.36 -0.24,-10 -0.24,-11.44 0,-1.28 0.04,-2.36 0.04,-1.08 0.04,-1.44 -0.24,0.04 -1.44,0.2 -1.2,0.16 -1.92,0.32 -2.55999998,0.6 -3.87999998,1.16 -1.36000002,0.52 -2.60000002,1.2 -0.36,0.24 -0.68,0.4 -0.36,0.12 -0.68,0.12 -0.32,0 -0.56,-0.28 -0.24,-0.32 -0.24,-0.76 0,-0.76 2.56,-1.76 2.56000003,-1 5.56,-1.64 1.68,-0.36 4.28,-0.6 2.6,-0.28 4.8400004,-0.28 3.84,0 6.52,0.84 2.72,0.84 4.08,2.36 1.4,1.52 1.4,3.48 0,2.52 -1.44,4.32 -1.44,1.8 -3.84,3.12 -2.36,1.32 -6.44,3 -1.04,0.48 -2.0800004,0.88 -1,0.4 -1.36,0.56 0,0.24 0.04,0.36 4.3200004,0.96 8.5200004,2.2 l 0.84,0.24 q 4.36,1.32 6.44,2.08 2.08,0.72 2.08,1.2 z m -4.76,-17.96 q 0,-1.32 -1.16,-2.44 -1.16,-1.12 -3.52,-1.8 -2.32,-0.72 -5.64,-0.72 -2.4800004,0 -3.1200004,0.08 -0.04,0.28 -0.12,1.32 -0.04,1.04 -0.04,2.08 l 0.16,6.4 0.16,4.96 q 0.36,-0.04 1.4,-0.36 1.0800004,-0.36 1.8000004,-0.68 5.08,-2.04 7.56,-4.08 2.52,-2.08 2.52,-4.76 z"
         style="font-style:normal;font-variant:normal;font-weight:bold;font-stretch:normal;font-size:40px;font-family:'Ink Free';-inkscape-font-specification:'Ink Free, Normal';font-variant-ligatures:normal;font-variant-caps:normal;font-variant-numeric:normal;font-feature-settings:normal;text-align:start;writing-mode:lr-tb;text-anchor:start"
         id="path3840" />
    </g>
  </g>
</svg>
